<?xml version="1.0" encoding="UTF-8"?>
<svg version="1.1" xmlns="http://www.w3.org/2000/svg" width="24" height="24">
<path d="M0 0 C7.92 0 15.84 0 24 0 C24 5.28 24 10.56 24 16 C16.08 16 8.16 16 0 16 C0 10.72 0 5.44 0 0 Z " fill="#03664B" transform="translate(0,4)"/>
<path d="M0 0 C0.33 0 0.66 0 1 0 C1 4.29 1 8.58 1 13 C4.0628125 12.8453125 4.0628125 12.8453125 7.1875 12.6875 C8.91033203 12.60048828 8.91033203 12.60048828 10.66796875 12.51171875 C14.24688636 11.96208428 16.16807065 11.23363441 19 9 C20.42701818 6.7763302 20.42701818 6.7763302 21.3125 4.3125 C21.63863281 3.50425781 21.96476562 2.69601563 22.30078125 1.86328125 C22.53152344 1.24839844 22.76226563 0.63351563 23 0 C23.33 0 23.66 0 24 0 C24 4.62 24 9.24 24 14 C16.08 14 8.16 14 0 14 C0 9.38 0 4.76 0 0 Z " fill="#00533D" transform="translate(0,6)"/>
<path d="M0 0 C3.29714793 0.32971479 4.6226839 0.6226839 7 3 C6.67028521 6.29714793 6.3773161 7.6226839 4 10 C0.70285207 9.67028521 -0.6226839 9.3773161 -3 7 C-2.67028521 3.70285207 -2.3773161 2.3773161 0 0 Z " fill="#E42E41" transform="translate(9,7)"/>
</svg>
